<svg width="556" height="554" viewBox="0 0 556 554" fill="none" xmlns="http://www.w3.org/2000/svg">
<g opacity="0.1" clip-path="url(#clip0_166_968)">
<path d="M1019.92 96.9111H960.284L481.457 577.492L510.397 606.432L1019.92 96.9111Z" fill="white"/>
<path d="M899.773 96.9111H840.139L361.312 577.492L390.252 606.432L899.773 96.9111Z" fill="white"/>
<path d="M779.628 96.9111H719.994L241.167 577.492L270.107 606.432L779.628 96.9111Z" fill="white"/>
<path d="M659.483 96.9111H599.849L121.022 577.492L149.962 606.432L659.483 96.9111Z" fill="white"/>
<path d="M539.338 96.9111H479.703L0.876953 577.492L29.817 606.432L539.338 96.9111Z" fill="white"/>
<path d="M479.861 96.9111H539.495L1018.32 -383.669L989.382 -412.609L479.861 96.9111Z" fill="white"/>
</g>
<defs>
<clipPath id="clip0_166_968">
<rect width="556" height="554.246" fill="white" transform="matrix(-1 0 0 1 556 0)"/>
</clipPath>
</defs>
</svg>
