<svg width="556" height="555" viewBox="0 0 556 555" fill="none" xmlns="http://www.w3.org/2000/svg">
<g opacity="0.1" clip-path="url(#clip0_166_983)">
<path d="M-463.918 457.335H-404.284L74.543 -23.2455L45.6029 -52.1855L-463.918 457.335Z" fill="white"/>
<path d="M-343.773 457.335H-284.139L194.688 -23.2455L165.747 -52.1855L-343.773 457.335Z" fill="white"/>
<path d="M-223.629 457.335H-163.994L314.832 -23.2455L285.892 -52.1855L-223.629 457.335Z" fill="white"/>
<path d="M-103.484 457.335H-43.8499L434.977 -23.2455L406.036 -52.1855L-103.484 457.335Z" fill="white"/>
<path d="M16.6644 457.335H76.2985L555.125 -23.2455L526.185 -52.1855L16.6644 457.335Z" fill="white"/>
<path d="M76.1403 457.335H16.5062L-462.32 937.915L-433.38 966.855L76.1403 457.335Z" fill="white"/>
</g>
<defs>
<clipPath id="clip0_166_983">
<rect width="556" height="554.246" fill="white" transform="matrix(1 0 0 -1 0 554.246)"/>
</clipPath>
</defs>
</svg>
