<svg width="166" height="165" viewBox="0 0 166 165" fill="none" xmlns="http://www.w3.org/2000/svg">
<g opacity="0.1" clip-path="url(#clip0_166_1027)">
<path d="M303.631 28.8508H285.878L143.33 171.92L151.946 180.536L303.631 28.8508Z" fill="#FF7707"/>
<path d="M267.864 28.8508H250.11L107.563 171.92L116.179 180.536L267.864 28.8508Z" fill="#FF7707"/>
<path d="M232.096 28.8508H214.343L71.7958 171.92L80.4113 180.536L232.096 28.8508Z" fill="#FF7707"/>
<path d="M196.329 28.8508H178.576L36.0286 171.92L44.6441 180.536L196.329 28.8508Z" fill="#FF7707"/>
<path d="M160.561 28.8508H142.808L0.260254 171.92L8.87576 180.536L160.561 28.8508Z" fill="#FF7707"/>
<path d="M142.855 28.8508H160.608L303.155 -114.219L294.54 -122.834L142.855 28.8508Z" fill="#FF7707"/>
</g>
<defs>
<clipPath id="clip0_166_1027">
<rect width="165.522" height="165" fill="white" transform="matrix(-1 0 0 1 165.522 0)"/>
</clipPath>
</defs>
</svg>
