<svg width="166" height="165" viewBox="0 0 166 165" fill="none" xmlns="http://www.w3.org/2000/svg">
<g opacity="0.1" clip-path="url(#clip0_166_1039)">
<path d="M304.11 136.149H286.357L143.81 -6.92039L152.425 -15.5359L304.11 136.149Z" fill="#FF7707"/>
<path d="M268.343 136.149H250.59L108.042 -6.92039L116.658 -15.5359L268.343 136.149Z" fill="#FF7707"/>
<path d="M232.576 136.149H214.822L72.2751 -6.92039L80.8906 -15.5359L232.576 136.149Z" fill="#FF7707"/>
<path d="M196.808 136.149H179.055L36.5079 -6.92039L45.1234 -15.5359L196.808 136.149Z" fill="#FF7707"/>
<path d="M161.04 136.149H143.287L0.739502 -6.92039L9.35501 -15.5359L161.04 136.149Z" fill="#FF7707"/>
<path d="M143.334 136.149H161.087L303.635 279.219L295.019 287.834L143.334 136.149Z" fill="#FF7707"/>
</g>
<defs>
<clipPath id="clip0_166_1039">
<rect width="165.522" height="165" fill="white" transform="matrix(-1 0 0 -1 166.001 165)"/>
</clipPath>
</defs>
</svg>
