<svg width="74" height="74" viewBox="0 0 74 74" fill="none" xmlns="http://www.w3.org/2000/svg">
<g opacity="0.1" clip-path="url(#clip0_416_75)">
<path d="M212.109 28.8511H194.356L51.8083 171.921L60.4239 180.536L212.109 28.8511Z" fill="#FF7707"/>
<path d="M176.342 28.8511H158.588L16.041 171.921L24.6565 180.536L176.342 28.8511Z" fill="#FF7707"/>
<path d="M140.574 28.8511H122.821L-19.7261 171.921L-11.1106 180.536L140.574 28.8511Z" fill="#FF7707"/>
<path d="M104.807 28.8511H87.054L-55.4934 171.921L-46.8779 180.536L104.807 28.8511Z" fill="#FF7707"/>
<path d="M69.0388 28.8511H51.2857L-91.2617 171.921L-82.6462 180.536L69.0388 28.8511Z" fill="#FF7707"/>
<path d="M51.3327 28.8511H69.0859L211.633 -114.218L203.018 -122.834L51.3327 28.8511Z" fill="#FF7707"/>
</g>
<defs>
<clipPath id="clip0_416_75">
<rect width="74" height="74" fill="white" transform="matrix(-1 0 0 1 74 0)"/>
</clipPath>
</defs>
</svg>
