<svg width="252" height="214" viewBox="0 0 252 214" fill="none" xmlns="http://www.w3.org/2000/svg">
<path fill-rule="evenodd" clip-rule="evenodd" d="M72.8802 99.5316C70.061 101.261 67.257 102.98 64.4839 104.669L35.7635 122.152L0.795898 64.7115L29.5163 47.2277C31.7568 45.8638 34.2314 44.3358 36.9001 42.6879C55.6584 31.105 84.0052 13.6013 108.007 5.56973C115.327 3.12036 123.77 0.98367 132.547 0.486341C141.259 -0.00725058 152.567 0.998593 163.415 7.2365C188.308 21.5507 190.459 49.1798 188.363 68.357C186.055 89.4614 180.393 109.745 172.571 129.156C187.45 128.19 204.649 129.908 221.79 138.304L251.986 153.094L222.406 213.486L192.21 198.696C187.287 196.285 181.002 195.49 172.342 196.752C163.754 198.004 155.574 200.786 146.351 203.922C145.812 204.106 145.27 204.29 144.724 204.476L144.498 204.552C140.516 205.904 134.28 208.022 128.445 209.059C125.475 209.587 120.046 210.344 113.757 209.389C106.866 208.342 96.5406 204.755 89.1928 194.476C82.3821 184.948 82.0228 174.998 82.4002 169.606C82.7897 164.041 84.2326 159.178 85.4281 155.773C87.8527 148.867 91.7635 141.112 96.247 133.01C107.766 112.193 115.764 92.3806 119.621 73.1969C105.46 79.5495 88.923 89.6922 72.8802 99.5316ZM136.47 67.6221C136.47 67.6227 136.444 67.6239 136.394 67.6237C136.446 67.6213 136.471 67.6214 136.47 67.6221ZM121.777 55.7908C121.704 55.4425 121.693 55.2399 121.705 55.2256C121.717 55.2113 121.753 55.3854 121.777 55.7908ZM148.821 178.226C148.819 178.228 148.834 178.177 148.871 178.071C148.841 178.172 148.823 178.225 148.821 178.226Z" fill="#FF7707"/>
</svg>
