<svg width="231" height="221" viewBox="0 0 231 221" fill="none" xmlns="http://www.w3.org/2000/svg">
<path fill-rule="evenodd" clip-rule="evenodd" d="M207.851 101.653L176.188 90.3386C158.049 83.8566 137.413 77.4818 118.652 73.1722C116.392 72.6529 114.211 72.1766 112.113 71.7413C116.863 76.6351 122.453 82.0819 128.985 88.1171C144.314 102.278 156.374 114.717 165.347 125.663C173.904 136.102 181.485 147.352 185.258 159.084C189.365 171.858 190.137 190.589 175.765 205.397C164.333 217.174 149.291 219.567 141.109 220.262C123.261 221.775 101.274 217.635 83.5767 213.477C64.7275 209.048 45.7854 203.332 32.4914 199.283L0.32723 189.484L19.9241 125.156L52.0883 134.954C63.7988 138.522 78.3656 142.904 92.8984 146.541C89.9704 143.698 86.7936 140.691 83.3523 137.511C67.9669 123.298 55.7659 110.628 46.6424 99.3224C37.8799 88.4636 30.2747 76.8338 26.5071 64.7325C22.4582 51.7273 21.8704 33.7342 34.7884 18.8094C45.6813 6.22421 60.6684 2.72064 69.8536 1.50963C89.0448 -1.02063 112.947 2.8631 133.708 7.63199C155.687 12.681 178.923 19.9036 198.818 27.0133L230.481 38.3281L207.851 101.653ZM136.175 153.167C136.175 153.167 136.17 153.168 136.16 153.169C136.17 153.168 136.175 153.167 136.175 153.167ZM77.4742 68.4019C77.4633 68.3941 77.6149 68.3473 77.9615 68.2846C77.6583 68.3782 77.485 68.4096 77.4742 68.4019Z" fill="#FF7707"/>
</svg>
