<svg width="246" height="212" viewBox="0 0 246 212" fill="none" xmlns="http://www.w3.org/2000/svg">
<path fill-rule="evenodd" clip-rule="evenodd" d="M126.788 0.46582L156.406 16.3824C166.525 21.8207 178.329 29.8216 187.509 40.3905C196.339 50.5563 207.244 68.6914 201.822 91.2495C196.581 113.057 178.898 126.643 161.394 135.197C158.817 136.457 156.103 137.679 153.252 138.863C173.501 141.187 194.02 142.804 212.098 143.394L245.704 144.493L243.507 211.704L209.902 210.606C160.883 209.004 93.7964 200.536 53.6448 189.093C43.6962 186.258 33.2751 182.664 24.8088 177.928C20.7017 175.631 14.9163 171.906 10.0093 166.163C4.81819 160.088 -1.54137 148.93 0.900136 134.429C3.1568 121.026 11.6797 112.865 16.8693 108.926C22.3595 104.758 28.4289 101.981 33.601 100.021C44.1094 96.0393 57.8765 92.8864 74.2929 90.1849C99.7911 85.989 116.493 81.2509 126.964 76.9654C126.2 76.514 125.402 76.0636 124.573 75.6178L94.9549 59.7012L126.788 0.46582ZM137.437 85.3744C137.434 85.3738 137.397 85.3228 137.336 85.2233C137.411 85.3252 137.441 85.3749 137.437 85.3744ZM138.638 70.6637C138.729 70.5577 138.784 70.507 138.788 70.5081C138.793 70.5092 138.747 70.5622 138.638 70.6637ZM57.4057 119.099C57.4091 119.098 57.4769 119.137 57.5991 119.217C57.4635 119.14 57.4024 119.1 57.4057 119.099ZM56.0025 163.503C55.9937 163.507 55.9891 163.51 55.9891 163.51C55.989 163.51 55.9934 163.507 56.0025 163.503Z" fill="#FF7707"/>
</svg>
