<svg width="315" height="177" viewBox="0 0 315 177" fill="none" xmlns="http://www.w3.org/2000/svg">
<path fill-rule="evenodd" clip-rule="evenodd" d="M77.6494 81.838C71.2182 84.8933 63.7982 88.4183 56.4877 91.3425L25.2689 103.83L0.293945 41.3926L31.5127 28.9051C36.7528 26.809 42.2637 24.1942 49.1436 20.9297C49.6758 20.6772 50.216 20.4208 50.765 20.1605C57.9748 16.7419 66.5073 12.7338 75.4672 9.33283C93.2141 2.59663 116.758 -3.42466 142.453 3.33716C152.021 5.85505 159.834 11.9883 164.625 20.0969C168.806 27.1733 169.722 34.0598 169.93 38.1752C170.246 44.4483 169.155 50.3451 168.065 54.6843C169.475 54.148 170.918 53.6567 172.392 53.2171C187.217 48.7978 207.357 49.4955 223.633 65.1684C233.055 74.2415 239.765 85.6456 244.107 93.4891L252.657 73.5388L314.467 100.029L301.222 130.934C298.45 137.401 292.151 151.903 281.019 162.413C274.85 168.237 265.313 174.665 252.408 176.125C239.102 177.631 227.269 173.297 217.936 166.926C202.111 156.125 193.391 140.65 188.33 131.611C188.043 131.098 187.765 130.601 187.494 130.118C186.267 127.925 185.209 126.034 184.277 124.39C181.144 127.035 177.506 129.852 174.134 132.345C167.67 137.125 159.134 142.96 150.284 147.809C142.945 151.83 129.864 158.379 116.001 158.799C108.136 159.038 95.6396 157.379 85.2825 147.301C75.0223 137.318 72.7799 124.813 72.6754 116.351C72.6063 110.757 73.8735 106.134 74.3796 104.35C75.0684 101.922 75.9019 99.6269 76.6354 97.7422C78.11 93.9533 80.0025 89.7426 81.8547 85.7584C83.1967 82.8716 84.3544 80.4262 85.4321 78.1712C83.5434 79.0471 81.5973 79.9649 79.5765 80.923C78.9451 81.2224 78.3024 81.5278 77.6494 81.838ZM102.949 37.8087C102.952 37.8066 102.94 37.8776 102.906 38.0277C102.929 37.8857 102.946 37.8107 102.949 37.8087ZM111.433 91.8723C111.346 91.8983 111.305 91.9083 111.305 91.9069C111.306 91.9054 111.349 91.8924 111.433 91.8723Z" fill="#FF7707"/>
</svg>
