<svg width="276" height="166" viewBox="0 0 276 166" fill="none" xmlns="http://www.w3.org/2000/svg">
<path fill-rule="evenodd" clip-rule="evenodd" d="M62.9409 0.668465L75.1085 32.0133C80.0624 44.7751 86.5807 59.1144 93.775 71.8017C98.0987 79.4269 102.199 85.6138 105.836 90.3042C107.128 86.8442 108.501 82.5805 109.896 77.3759C113.655 63.3462 118.107 51.0867 123.598 40.9574C128.953 31.0771 136.553 20.8897 147.758 14.1949C160.198 6.76222 173.979 5.50674 186.579 9.07715C197.874 12.278 206.648 18.8529 212.811 24.5978C225.028 35.9844 235.038 51.8114 242.39 64.9524C250.092 78.7199 256.617 92.7797 261.049 102.406L275.111 132.948L214.028 161.072L199.966 130.53C195.54 120.919 189.983 109.011 183.703 97.785C181.42 93.7038 179.226 90.0566 177.159 86.8672C176.408 89.2242 175.636 91.8539 174.852 94.7808C171.057 108.944 166.447 121.423 160.655 131.791C154.952 142.001 146.998 152.137 135.596 158.784C107.986 174.879 82.3679 160.59 69.1249 149.151C55.4537 137.343 44.0564 120.453 35.2779 104.972C26.1556 88.8846 18.2952 71.4865 12.4188 56.3484L0.251286 25.0036L62.9409 0.668465ZM184.475 70.2234C184.475 70.2236 184.47 70.2291 184.461 70.2396C184.47 70.2286 184.475 70.2233 184.475 70.2234ZM165.74 72.7592C165.694 72.7305 165.671 72.7142 165.671 72.7132C165.671 72.7122 165.694 72.7266 165.74 72.7592Z" fill="#FF7707"/>
</svg>
