<svg width="302" height="232" viewBox="0 0 302 232" fill="none" xmlns="http://www.w3.org/2000/svg">
<path fill-rule="evenodd" clip-rule="evenodd" d="M110.805 0.70752L141.601 14.204C180.772 31.3711 235.703 58.3452 267.466 82.3012C275.466 88.3343 283.782 95.478 290.034 103.483C295.077 109.94 305.793 125.883 299.977 145.823C293.897 166.665 275.181 174.198 265.597 176.947C254.378 180.165 240.81 181.257 226.037 181.257C206.523 181.257 186.551 182.345 167.405 184.149V231.624H133.781C106.965 231.624 85.495 230.824 68.832 229.324C53.084 227.906 38.7131 225.649 27.9638 221.363C23.2747 219.493 13.5152 215.088 6.79594 205.145C2.90623 199.389 0.178926 191.926 0.387677 183.413C0.588666 175.216 3.44306 168.631 6.32535 164.078C11.5032 155.899 18.756 151.084 22.7722 148.676C27.5492 145.812 32.791 143.454 37.8258 141.491C69.7557 129.039 132.382 117.916 193.697 114.846C169.366 101.097 139.94 86.8981 114.608 75.7959L83.8117 62.2995L110.805 0.70752ZM247.86 112.035C247.873 112.04 247.716 112.106 247.354 112.218C247.666 112.086 247.847 112.031 247.86 112.035ZM57.3506 206.352C57.3817 206.333 57.4197 206.311 57.4647 206.286C57.0896 206.545 57.006 206.559 57.3506 206.352Z" fill="#FF7707"/>
</svg>
