<svg width="292" height="213" viewBox="0 0 292 213" fill="none" xmlns="http://www.w3.org/2000/svg">
<path fill-rule="evenodd" clip-rule="evenodd" d="M181.784 0.69043L203.047 26.7373C208.133 32.9677 212.751 38.153 216.9 42.4578C223.187 39.4451 229.813 36.9822 236.712 35.3902L236.712 35.3902C247.828 32.825 260.565 33.9099 271.723 41.2768C282.394 48.3216 287.953 58.6935 290.207 67.8751C294.441 85.1258 289.016 106.089 272.231 118.946C255.563 131.715 235.333 131.376 217.551 124.689C213.538 128.578 209.473 132.806 205.4 137.297C186.843 157.756 170.313 181.23 160.426 196.442C159.576 197.749 157.997 200.016 155.594 202.398C153.543 204.432 148.399 209.081 140.126 211.233C129.841 213.908 119.127 211.571 110.988 205.324C104.447 200.304 101.537 194.301 100.443 191.77C98.239 186.67 97.7896 182.122 97.6731 180.944L97.6672 180.884C97.48 178.999 97.4518 177.363 97.4513 176.326C97.4502 174.209 97.5749 172.254 97.6497 171.198C97.6651 170.982 97.6803 170.776 97.6945 170.591C97.7429 167.633 97.9146 163.117 98.0997 158.248C98.169 156.425 98.2402 154.552 98.3076 152.694C98.4722 148.147 98.6372 143.178 98.7625 138.083C90.3851 145.182 81.4146 153.637 72.2756 162.776L48.5002 186.551L0.949219 139L24.7247 115.225C39.3844 100.565 55.8273 85.305 71.7938 73.7753C79.7771 68.0104 88.5241 62.5279 97.5806 58.5726C106.255 54.7841 118.006 51.1531 130.964 52.517C133.759 52.8113 136.319 53.4018 138.653 54.1953L129.69 43.216L181.784 0.69043ZM163.32 83.6229C163.335 83.6838 163.349 83.7447 163.363 83.8056C163.384 83.7835 163.406 83.7615 163.427 83.7395C163.391 83.7007 163.356 83.6618 163.32 83.6229ZM126.799 119.357C126.799 119.358 126.781 119.362 126.746 119.369C126.782 119.36 126.8 119.357 126.799 119.357ZM97.793 169.311C97.7952 169.295 97.7875 169.415 97.7635 169.717C97.7789 169.478 97.7909 169.326 97.793 169.311Z" fill="#FF7707"/>
</svg>
