<svg xmlns="http://www.w3.org/2000/svg" width="25" height="25" viewBox="0 0 25 25" fill="none">
  <rect width="25" height="25" rx="12.5" fill="#FF7707"/>
  <path d="M9.215 18.375H7.43V10.095H5V8.865C6.575 8.82 7.34 8.685 7.895 7.5H9.215V18.375Z" fill="white"/>
  <path d="M14.8167 17.19C16.0167 17.19 16.9617 16.335 16.9617 14.88C16.9617 13.26 15.8517 12.495 14.7717 12.495C13.7517 12.495 13.0317 12.99 12.8067 13.635L11.1267 13.545L11.8467 7.5H18.3567V9.075H13.3167L12.9717 11.805C13.4967 11.385 14.2467 11.13 15.2217 11.13C17.0817 11.13 18.8067 12.405 18.8067 14.85C18.8067 17.28 16.9467 18.57 14.7867 18.57C12.2667 18.57 10.9467 16.92 10.8267 15.045H12.5517C12.7167 16.305 13.3767 17.19 14.8167 17.19Z" fill="white"/>
</svg>