<svg width="2745" height="450" viewBox="0 0 2745 450" fill="none" xmlns="http://www.w3.org/2000/svg">
<path d="M81.491 73.4358L57.2305 50.1431L97.0177 10.3516H144.568L81.491 73.4358Z" fill="black"/>
<path d="M32.9699 121.964L9.67969 97.7004L25.2065 82.1719L49.467 105.465L32.9699 121.964Z" fill="black"/>
<path d="M81.491 169.518L57.2305 145.255L72.7571 129.727L97.0177 153.019L81.491 169.518Z" fill="black"/>
<path d="M129.04 217.077L105.75 193.784L121.277 177.285L145.537 201.548L129.04 217.077Z" fill="black"/>
<path d="M176.591 265.6L153.301 241.337L168.828 225.809L193.088 249.101L176.591 265.6Z" fill="black"/>
<path d="M32.9699 217.077L9.67969 193.784L25.2065 177.285L49.467 201.548L32.9699 217.077Z" fill="black"/>
<path d="M81.491 265.6L57.2305 241.337L72.7571 225.809L97.0177 249.101L81.491 265.6Z" fill="black"/>
<path d="M129.04 313.159L105.75 289.866L121.277 273.367L145.537 296.66L129.04 313.159Z" fill="black"/>
<path d="M32.9699 313.159L9.67969 289.866L26.1768 273.367L49.467 296.66L32.9699 313.159Z" fill="black"/>
<path d="M81.491 361.686L57.2305 337.423L74.6979 319.953L97.0177 345.187L81.491 361.686Z" fill="black"/>
<path d="M32.9695 409.239L8.70898 384.975L26.1764 368.477L49.4666 392.74L32.9695 409.239Z" fill="black"/>
<path d="M129.04 121.964L105.75 97.7008L193.088 9.38281L241.609 10.3534L129.04 121.964Z" fill="black"/>
<path d="M176.591 169.52L152.33 145.257L289.16 9.38281L336.71 10.3534L176.591 169.52Z" fill="black"/>
<path d="M225.112 217.076L200.852 193.783L384.261 9.38281H432.782L225.112 217.076Z" fill="black"/>
<path d="M384.262 441.265H432.783L0.945312 10.3516V57.9073L384.262 441.265Z" fill="#E63312"/>
<path d="M289.16 441.269H336.711L0.945312 106.438V153.993L289.16 441.269Z" fill="#E63312"/>
<path d="M193.089 441.267H240.639L0.945312 201.547V249.103L193.089 441.267Z" fill="#E63312"/>
<path d="M97.017 441.267H144.568L0.945312 297.629V345.185L97.017 441.267Z" fill="#E63312"/>
<path d="M0.945312 393.711L49.4664 441.267H0.945312V393.711Z" fill="#E63312"/>
<path d="M17.4434 10.3516C28.118 10.3516 37.8222 10.3516 48.4968 10.3516C48.4968 10.3516 38.7927 21.0273 32.9702 25.8799C30.0589 22.9683 23.2659 16.1747 17.4434 10.3516Z" fill="black"/>
<path d="M1959.25 283.07L1936.93 331.597H2101.91L2155.28 441.266H2214.47L2137.81 283.07H1959.25Z" fill="black"/>
<path d="M517.209 10.3555H570.582L571.553 160.787L517.209 206.402V10.3555Z" fill="black"/>
<path d="M818.04 10.3555H891.792L570.582 288.896L571.553 441.269H517.209V271.427L818.04 10.3555Z" fill="black"/>
<path d="M702.559 238.427L742.346 203.488L913.14 441.267H848.122L702.559 238.427Z" fill="black"/>
<path d="M1147.01 0.648438C1022.8 0.648438 922.846 101.583 922.846 224.84C922.846 349.067 1023.77 449.032 1147.01 449.032C1271.23 449.032 1371.18 348.097 1371.18 224.84C1372.15 101.583 1271.23 0.648438 1147.01 0.648438ZM1145.07 398.564C1049.97 398.564 973.308 321.893 973.308 226.781C973.308 131.67 1049.97 54.9978 1145.07 54.9978C1240.17 54.9978 1316.84 131.67 1316.84 226.781C1316.84 321.893 1240.17 398.564 1145.07 398.564Z" fill="black"/>
<path d="M1389.62 10.3555H1448.81L1614.76 351.981L1780.7 10.3555H1839.89L1632.22 441.269H1598.26L1389.62 10.3555Z" fill="black"/>
<path d="M1973.81 10.3555H2005.84L2114.52 234.547H2055.33L1989.34 99.6439L1824.37 441.269H1765.17L1973.81 10.3555Z" fill="black"/>
<path d="M2293.08 9.38281H2346.45V391.77L2627.87 392.741V441.267H2293.08V9.38281Z" fill="black"/>
<path d="M2690.95 9.38281H2744.33V441.267H2690.95V9.38281Z" fill="black"/>
</svg>
