<svg width="352" height="350" viewBox="0 0 352 350" fill="none" xmlns="http://www.w3.org/2000/svg">
<g opacity="0.1" clip-path="url(#clip0_166_959)">
<path d="M644.959 288.802H607.301L304.927 -14.6795L323.203 -32.9548L644.959 288.802Z" fill="white"/>
<path d="M569.089 288.802H531.43L229.057 -14.6795L247.332 -32.9548L569.089 288.802Z" fill="white"/>
<path d="M493.218 288.802H455.56L153.186 -14.6795L171.462 -32.9548L493.218 288.802Z" fill="white"/>
<path d="M417.347 288.802H379.689L77.3157 -14.6795L95.591 -32.9548L417.347 288.802Z" fill="white"/>
<path d="M341.477 288.802H303.818L1.44507 -14.6795L19.7204 -32.9548L341.477 288.802Z" fill="white"/>
<path d="M303.916 288.802H341.574L643.947 592.283L625.672 610.558L303.916 288.802Z" fill="white"/>
</g>
<defs>
<clipPath id="clip0_166_959">
<rect width="351.108" height="350" fill="white" transform="matrix(-1 0 0 -1 351.998 350)"/>
</clipPath>
</defs>
</svg>
