<svg width="352" height="350" viewBox="0 0 352 350" fill="none" xmlns="http://www.w3.org/2000/svg">
<g opacity="0.1" clip-path="url(#clip0_166_1194)">
<path d="M644.961 288.801H607.302L304.929 -14.6797L323.204 -32.9551L644.961 288.801Z" fill="white"/>
<path d="M569.09 288.801H531.432L229.059 -14.6797L247.334 -32.9551L569.09 288.801Z" fill="white"/>
<path d="M493.22 288.801H455.561L153.188 -14.6797L171.463 -32.9551L493.22 288.801Z" fill="white"/>
<path d="M417.349 288.801H379.691L77.3174 -14.6797L95.5927 -32.9551L417.349 288.801Z" fill="white"/>
<path d="M341.478 288.801H303.82L1.44678 -14.6797L19.7221 -32.9551L341.478 288.801Z" fill="white"/>
<path d="M303.917 288.801H341.576L643.949 592.282L625.674 610.558L303.917 288.801Z" fill="white"/>
</g>
<defs>
<clipPath id="clip0_166_1194">
<rect width="351.108" height="350" fill="white" transform="matrix(-1 0 0 -1 352 350)"/>
</clipPath>
</defs>
</svg>
