<svg width="32" height="32" viewBox="0 0 32 32" fill="none" xmlns="http://www.w3.org/2000/svg">
<path d="M4.79688 27.2L6.3754 21.4484C5.40021 19.7611 4.88797 17.8471 4.89033 15.8992C4.8929 9.77907 9.88355 4.80005 16.0163 4.80005C18.9924 4.80156 21.7857 5.95735 23.8866 8.05541C25.9874 10.1535 27.1432 12.9422 27.1422 15.9081C27.1395 22.0279 22.148 27.0078 16.0162 27.0078H16.0113C14.1494 27.007 12.3199 26.5409 10.6948 25.6566L4.79688 27.2Z" fill="#24D366"/>
<path d="M16.0205 6.67507C10.9196 6.67507 6.77136 10.8134 6.76954 15.9C6.76703 17.6369 7.25715 19.3391 8.18324 20.8098L8.40325 21.1588L7.4689 24.563L10.9689 23.6471L11.3069 23.8469C12.7263 24.6876 14.3538 25.1322 16.0135 25.1331H16.017C21.114 25.1331 25.2622 20.9943 25.2642 15.9074C25.268 14.695 25.0309 13.4938 24.5664 12.3734C24.1019 11.2531 23.4193 10.2358 22.5582 9.38053C21.7019 8.52056 20.6831 7.83863 19.5609 7.37424C18.4387 6.90985 17.2354 6.67221 16.0205 6.67507Z" fill="white"/>
<path fill-rule="evenodd" clip-rule="evenodd" d="M13.2321 11.2591C13.0238 10.7972 12.8045 10.7878 12.6066 10.7798L12.0737 10.7733C11.8883 10.7733 11.5871 10.8427 11.3324 11.1204C11.0778 11.3981 10.3594 12.0692 10.3594 13.4341C10.3594 14.7991 11.3556 16.118 11.4944 16.3033C11.6332 16.4886 13.4175 19.3789 16.2433 20.491C18.5915 21.4151 19.0693 21.2313 19.5792 21.1851C20.0891 21.139 21.2239 20.514 21.4554 19.8662C21.6869 19.2184 21.6871 18.6633 21.6177 18.5473C21.5483 18.4312 21.3629 18.3623 21.0847 18.2234C20.8064 18.0846 19.4399 17.4135 19.1851 17.3209C18.9303 17.2282 18.7451 17.1822 18.5595 17.4598C18.374 17.7375 17.8419 18.3621 17.6796 18.5473C17.5174 18.7324 17.3554 18.7557 17.0772 18.617C16.799 18.4783 15.9038 18.1853 14.8417 17.2401C14.0153 16.5048 13.4574 15.5966 13.295 15.3191C13.1326 15.0416 13.2778 14.8913 13.4172 14.753C13.542 14.6287 13.6952 14.429 13.8344 14.2671C13.9737 14.1052 14.0195 13.9894 14.112 13.8046C14.2046 13.6197 14.1585 13.4573 14.0889 13.3187C14.0194 13.18 13.4792 11.8079 13.2321 11.2592" fill="#24D366"/>
</svg>
